<svg id="Layer_1" data-name="Layer 1" xmlns="http://www.w3.org/2000/svg" width="40" height="40" viewBox="0 0 29.47 30.19"><defs><style>.cls-1{fill:#0c0c0c;}</style></defs><title>icons baby bazaar</title><path class="cls-1" d="M28.92,4.08a3.68,3.68,0,0,0-3.86,3.3v5.56H12.66V.56A.56.56,0,0,0,12.28,0a.55.55,0,0,0-.61.2S9.11,3.55,2.46,3.37A.53.53,0,0,0,2,3.55.55.55,0,0,0,1.9,4c0,.07.82,6.66-1.69,9.07l0,0a.61.61,0,0,0-.07.1.35.35,0,0,0,0,.08.64.64,0,0,0,0,.07.58.58,0,0,0,0,.14v3a5.06,5.06,0,0,0,5.05,5.05h7.54L9.51,23.71a3.55,3.55,0,0,0-2.21-.77,3.63,3.63,0,1,0,3.58,4.17h6.87a3.62,3.62,0,1,0,3.58-4.17,3.55,3.55,0,0,0-2.21.77L16,21.52h5.07a5.06,5.06,0,0,0,5.05-5.05v-9a2.58,2.58,0,0,1,2.76-2.25.55.55,0,1,0,0-1.1Zm-25.87.4c4.53,0,7.2-1.56,8.51-2.62V12.21L5.85,6.84a.54.54,0,0,0-.77,0,.55.55,0,0,0,0,.78l5.62,5.3h-9C3.36,10.36,3.19,6.09,3.05,4.48ZM7.3,29.09a2.53,2.53,0,1,1,1.79-4.31l0,0a2.48,2.48,0,0,1,.7,1.74A2.53,2.53,0,0,1,7.3,29.09Zm11.5-2.53h0a2.47,2.47,0,0,1,.69-1.72l.1-.11A2.56,2.56,0,0,1,21.33,24a2.53,2.53,0,1,1-2.53,2.54Zm-.46-2a3.72,3.72,0,0,0-.59,1.5H10.88a3.72,3.72,0,0,0-.59-1.5l4-2.86Zm6.72-8a4,4,0,0,1-3.95,4H5.05a4,4,0,0,1-3.95-4V14h24Z"/></svg>