<svg width="14" height="14" viewBox="0 0 14 14" fill="none" xmlns="http://www.w3.org/2000/svg">
<path fill-rule="evenodd" clip-rule="evenodd" d="M1.41996 0.713585C1.2247 0.518323 0.908115 0.518323 0.712853 0.713585C0.517591 0.908847 0.517591 1.22543 0.712853 1.42069L6.2922 7.00004L6.28858 7.00365L6.28855 7.00369L0.714347 12.5768C0.519067 12.7721 0.519037 13.0887 0.71428 13.2839C0.909524 13.4792 1.22611 13.4793 1.42139 13.284L6.99562 7.71083L6.99566 7.71079L6.9993 7.70714L7.00295 7.71079L7.00299 7.71083L12.5772 13.284C12.7725 13.4793 13.0891 13.4792 13.2843 13.2839C13.4796 13.0887 13.4795 12.7721 13.2843 12.5768L7.71006 7.00369L7.71003 7.00365L7.70641 7.00004L13.2858 1.42069C13.481 1.22543 13.481 0.908847 13.2858 0.713585C13.0905 0.518323 12.7739 0.518323 12.5786 0.713585L6.9993 6.29293L1.41996 0.713585Z" fill="#FF0000"/>
</svg>
