<svg id="Layer_1" data-name="Layer 1" xmlns="http://www.w3.org/2000/svg" width="39" height="39" viewBox="0 0 25.45 29.52"><defs><style>.cls-1{fill:#0c0c0c;}</style></defs><title>icons baby bazaar</title><path class="cls-1" d="M25.4,26,19.76,13.24s0,0,0-.06V11.27a16.52,16.52,0,0,0,1-6.27,9.52,9.52,0,0,1,.95-3.61.56.56,0,0,0,0-.49.53.53,0,0,0-.39-.29L17.94,0a.55.55,0,0,0-.63.41,6.83,6.83,0,0,1-1.39,2.79,5.63,5.63,0,0,1-.95.66A5.84,5.84,0,0,0,12.67,6a5.92,5.92,0,0,0-2.31-2.16,5.63,5.63,0,0,1-.95-.66A7,7,0,0,1,8,.42.55.55,0,0,0,7.39,0L4,.61A.55.55,0,0,0,3.62.9a.56.56,0,0,0,0,.49A9.52,9.52,0,0,1,4.56,5a16.42,16.42,0,0,0,1,6.27v1.79l0,0L0,26a.54.54,0,0,0,.11.58c.11.12,2.8,2.91,12.53,2.91s12.5-2.8,12.62-2.92A.55.55,0,0,0,25.4,26ZM6.66,12.63v-1h12v1ZM7.09,1.18A7.13,7.13,0,0,0,8.66,4a7.21,7.21,0,0,0,1.12.79,4.2,4.2,0,0,1,2.35,2.93.55.55,0,0,0,.54.43.54.54,0,0,0,.53-.43,4.2,4.2,0,0,1,2.35-2.93A7.21,7.21,0,0,0,16.67,4a7.13,7.13,0,0,0,1.57-2.84l2.2.39A9.61,9.61,0,0,0,19.67,5a16,16,0,0,1-.82,5.56H6.48A16.3,16.3,0,0,1,5.66,5a9.61,9.61,0,0,0-.77-3.45Zm5.59,27.24c-7.56,0-10.62-1.73-11.46-2.34L6.46,13.73h2.8l-1.2,5.14a.55.55,0,0,0,.41.66h.12a.56.56,0,0,0,.54-.42l1.26-5.39h4.75l1.29,5.39a.54.54,0,0,0,.53.42h.13a.56.56,0,0,0,.41-.66l-1.23-5.14h2.51l5.45,12.34C23.37,26.69,20.3,28.42,12.68,28.42Z"/></svg>