<svg id="Layer_1" data-name="Layer 1" xmlns="http://www.w3.org/2000/svg" width="37" height="39" viewBox="0 0 27.34 28.48"><defs><style>.cls-1{fill:#0c0c0c;}</style></defs><title>icons baby bazaar</title><path class="cls-1" d="M11.83,14.08a1.92,1.92,0,0,0-1.94-1.81,1.89,1.89,0,0,0-1.81,1.94,1.88,1.88,0,1,0,3.75-.13Zm-2.68.1a.82.82,0,0,1,.78-.84.84.84,0,0,1,.58.22A.81.81,0,0,1,10,15,.82.82,0,0,1,9.15,14.18Z"/><path class="cls-1" d="M11.62,18.28a1.88,1.88,0,0,0-1.81,1.94,1.9,1.9,0,0,0,.59,1.31,1.88,1.88,0,0,0,3.16-1.44A1.92,1.92,0,0,0,11.62,18.28ZM11.71,21a.83.83,0,0,1-.83-.78.8.8,0,0,1,.78-.83.76.76,0,0,1,.57.22.78.78,0,0,1,.26.56A.82.82,0,0,1,11.71,21Z"/><path class="cls-1" d="M6,18.86A1.87,1.87,0,0,0,4.73,22.1a1.84,1.84,0,0,0,1.35.51,1.88,1.88,0,0,0,1.81-1.94A1.92,1.92,0,0,0,6,18.86ZM6,21.54a.83.83,0,0,1-.83-.78.81.81,0,0,1,1.35-.62A.81.81,0,0,1,6,21.54Z"/><path class="cls-1" d="M26.77.9a2.35,2.35,0,0,0-.46-.43A2.46,2.46,0,0,0,24.17.1a2.7,2.7,0,0,0-1.75,1.61,2.33,2.33,0,0,1-2,1.3,2.76,2.76,0,0,0-2,.27l-.06,0a1.06,1.06,0,0,0-1.5,0l-.74.79a1.08,1.08,0,0,0-1.54.09l-.67.72a1.07,1.07,0,0,0,0,1.54l-.37.4a2.23,2.23,0,0,0-1.8-.55,2.25,2.25,0,0,0-1.62,1.05L9.26,8.63A29,29,0,0,1,2.6,15.85L.92,17.09A2.26,2.26,0,0,0,0,18.78a2.23,2.23,0,0,0,.72,1.78l7.85,7.31a2.26,2.26,0,0,0,3.51-.55l.27-.49A27.48,27.48,0,0,1,21,17.69a2.25,2.25,0,0,0,.34-3.56l.37-.4a1.09,1.09,0,0,0,1.55-.08l.67-.72a1.09,1.09,0,0,0,0-1.55l.74-.79a1.06,1.06,0,0,0-.05-1.5L24.52,9a2.79,2.79,0,0,0,.13-2,2.29,2.29,0,0,1,1.18-2.13A2.69,2.69,0,0,0,27.29,3,2.46,2.46,0,0,0,26.77.9ZM11.41,26.31l-.27.49a1.14,1.14,0,0,1-.85.59,1.17,1.17,0,0,1-1-.3L1.45,19.77a1.17,1.17,0,0,1-.38-.93A1.21,1.21,0,0,1,1.55,18l1.69-1.24A30.39,30.39,0,0,0,9.7,9.9a4.27,4.27,0,0,1,4.09,3.95,5.09,5.09,0,0,0,1.64,3.54,5.41,5.41,0,0,0,2.42,1.29A29,29,0,0,0,11.41,26.31Zm9-9.53c-.46.29-.93.62-1.39,1a4.23,4.23,0,0,1-4.17-3.92,5.37,5.37,0,0,0-4.5-4.93l.62-1a1.2,1.2,0,0,1,1.82-.25l.35.33a.53.53,0,0,0,.76,0l.73-.79L20.92,13l-.74.79a.55.55,0,0,0,0,.76l.39.36a1.19,1.19,0,0,1-.18,1.87Zm2.71-4.58-.67.72,0,0L22,12.59,15,6l0,0-.35-.33,0,0,.67-.72,0,0,7.84,7.3Zm0-1.55L16.83,4.8,17.56,4l6.28,5.86Zm3.13-7.86a1.62,1.62,0,0,1-.9,1.11,3.34,3.34,0,0,0-1.72,3.37,2.11,2.11,0,0,1,.06,1L19.19,4.07a2.17,2.17,0,0,1,1,0,3.35,3.35,0,0,0,3.25-2,1.57,1.57,0,0,1,1-1,1.41,1.41,0,0,1,1.22.2,1.66,1.66,0,0,1,.27.26A1.38,1.38,0,0,1,26.24,2.79Z"/></svg>