<svg id="Layer_1" data-name="Layer 1" xmlns="http://www.w3.org/2000/svg" width="37" height="35" viewBox="0 0 26.93 26.39"><defs><style>.cls-1{fill:#0c0c0c;}</style></defs><title>icons baby bazaar</title><path class="cls-1" d="M24.77,0a2.16,2.16,0,0,0-2.15,2.15V5.39H14V4a1.31,1.31,0,0,0-1.3-1.31H11a1.3,1.3,0,0,0-.77.26,1.27,1.27,0,0,0-.76-.26H7.77A1.31,1.31,0,0,0,6.46,4V5.39H4.31V2.15A2.16,2.16,0,0,0,0,2.15V24.23a2.16,2.16,0,1,0,4.31,0V21.54h8.61v1.35a1.35,1.35,0,0,0,1.35,1.34h1.62A1.36,1.36,0,0,0,16.7,24a1.31,1.31,0,0,0,.8.27h1.62a1.34,1.34,0,0,0,1.34-1.34V21.54h2.16v2.69a2.16,2.16,0,1,0,4.31,0V2.15A2.16,2.16,0,0,0,24.77,0ZM3.23,24.23a1.08,1.08,0,1,1-2.15,0V2.15a1.08,1.08,0,0,1,2.15,0ZM11,3.77h1.7a.22.22,0,0,1,.22.23V7.85a.22.22,0,0,1-.22.23H11a.23.23,0,0,1-.23-.23V4A.23.23,0,0,1,11,3.77ZM7.54,4a.23.23,0,0,1,.23-.23h1.7A.22.22,0,0,1,9.69,4V7.85a.22.22,0,0,1-.22.23H7.77a.23.23,0,0,1-.23-.23ZM6.46,6.46V7.85A1.31,1.31,0,0,0,7.77,9.16h1.7a1.27,1.27,0,0,0,.76-.26,1.3,1.3,0,0,0,.77.26h1.7A1.31,1.31,0,0,0,14,7.85V6.46h8.62v6.46H18.31V11.38a1.14,1.14,0,0,0-1.14-1.15h-2a1.15,1.15,0,0,0-.61.18,1.12,1.12,0,0,0-.61-.18h-2a1.14,1.14,0,0,0-.6.18,1.15,1.15,0,0,0-.61-.18h-2a1.14,1.14,0,0,0-1.14,1.15v1.54H4.31V6.46Zm8.62,4.92a.07.07,0,0,1,.07-.07h2a.08.08,0,0,1,.07.07v4.17a.08.08,0,0,1-.07.07h-2a.07.07,0,0,1-.07-.07Zm-3.23,0a.07.07,0,0,1,.06-.07h2a.07.07,0,0,1,.07.07v4.17a.07.07,0,0,1-.07.07h-2a.07.07,0,0,1-.06-.07Zm-1.08,4.17a.07.07,0,0,1-.07.07h-2a.07.07,0,0,1-.06-.07V11.38a.07.07,0,0,1,.06-.07h2a.07.07,0,0,1,.07.07Zm5.12,7.61H14.27a.27.27,0,0,1-.27-.27V19.12a.27.27,0,0,1,.27-.27h1.62a.27.27,0,0,1,.27.27v3.77a.27.27,0,0,1-.27.27Zm3.5-.27a.27.27,0,0,1-.27.27H17.5a.26.26,0,0,1-.26-.27V19.12a.26.26,0,0,1,.26-.27h1.62a.27.27,0,0,1,.27.27Zm1.07-2.43V19.12a1.35,1.35,0,0,0-1.34-1.35H17.5a1.32,1.32,0,0,0-.8.28,1.37,1.37,0,0,0-.81-.28H14.27a1.36,1.36,0,0,0-1.35,1.35v1.34H4.31V14H7.54v1.55A1.15,1.15,0,0,0,8.68,16.7h2a1.15,1.15,0,0,0,.61-.18,1.14,1.14,0,0,0,.6.18h2a1.12,1.12,0,0,0,.61-.18,1.15,1.15,0,0,0,.61.18h2a1.15,1.15,0,0,0,1.14-1.15V14h4.31v6.46Zm5.39,3.77a1.08,1.08,0,1,1-2.15,0V2.15a1.08,1.08,0,0,1,2.15,0Zm0,0"/></svg>