<?xml version="1.0" encoding="utf-8"?>
<!-- Generator: Adobe Illustrator 23.0.5, SVG Export Plug-In . SVG Version: 6.00 Build 0)  -->
<svg version="1.1" id="Layer_1" xmlns="http://www.w3.org/2000/svg" xmlns:xlink="http://www.w3.org/1999/xlink" x="0px" y="0px"
	 viewBox="0 0 200 200" style="enable-background:new 0 0 200 200;" xml:space="preserve">
<style type="text/css">
	.st0{fill:#FAFBFF;}
	.st1{clip-path:url(#SVGID_2_);fill:#6354F4;}
	.st2{fill:none;stroke:#6354F4;stroke-width:2;}
	.st3{fill:none;}
</style>
<g>
	<circle class="st0" cx="100" cy="100" r="100"/>
	<circle class="st0" cx="100" cy="100" r="100"/>
	<g>
		<g>
			<defs>
				<circle id="SVGID_1_" cx="100" cy="100" r="100"/>
			</defs>
			<clipPath id="SVGID_2_">
				<use xlink:href="#SVGID_1_"  style="overflow:visible;"/>
			</clipPath>
			<path class="st1" d="M79.2,121.3c0,0-5.6,7.5-7.3,8.9c-1.7,1.4-41.5,14-47.8,22.5c-7.8,10.5-11.1,33.9-12.7,54H189
				c-1.7-20.1-4.9-43.5-12.8-54c-6.3-8.5-46.1-21.1-47.8-22.5c-1.7-1.4-7.3-8.9-7.3-8.9h-0.4v-8.2c2.4-3,4.2-6.1,5.4-8.5
				c0.8-1.6,1.5-5.1,2.1-9.6c6.5-3,7.3-13.5,7.6-19.3c0.1-2.6-1-3.1-2.3-2.7c1.4-4.4,2.9-10.2,4.1-17.2
				c2.7-16.2-20.3-20.4-20.3-20.4C80,9.5,65.8,43,64.8,45.2c-1.3,2.6-2.9,12.3-2,14c0.5,1,2.8,7.9,4.8,13.8c-1.6-0.6-3-0.4-2.9,2.5
				c0.3,5.9,1.1,16.3,7.6,19.3c0.6,4.5,1.3,8,2.1,9.6c1.2,2.4,2.9,5.4,5.3,8.3v8.4h-0.5V121.3z"/>
		</g>
	</g>
</g>
<circle class="st2" cx="100" cy="100" r="100"/>
<circle class="st3" cx="-455.2" cy="98.9" r="98.9"/>
</svg>
