<?xml version="1.0" encoding="utf-8"?>
<!-- Generator: Adobe Illustrator 23.0.5, SVG Export Plug-In . SVG Version: 6.00 Build 0)  -->
<svg version="1.1"
	width="120px" height="47"
	id="svg2" xmlns:cc="http://creativecommons.org/ns#" xmlns:dc="http://purl.org/dc/elements/1.1/" xmlns:rdf="http://www.w3.org/1999/02/22-rdf-syntax-ns#" xmlns:svg="http://www.w3.org/2000/svg"
	xmlns="http://www.w3.org/2000/svg" xmlns:xlink="http://www.w3.org/1999/xlink" x="0px" y="0px" viewBox="0 0 2532.9 987.2"
	style="enable-background:new 0 0 2532.9 987.2;" xml:space="preserve">
<style type="text/css">
	.st0{fill:#FFDCA5;}
	.st1{fill:#5E403E;}
	.st2{fill:#FFFFFF;}
	.st3{fill:#6953F8;}
	.st4{fill:#FF88B3;}
	.st5{opacity:0.33;}
	.st6{enable-background:new    ;}
	.st7{fill:#FF87B2;}
	.st8{fill:#6752F8;}
	.st9{fill:#FF87B2;enable-background:new    ;}
	.st10{fill:#6752F8;enable-background:new    ;}
</style>
<g>
	<g id="g14">
		<g id="g20" transform="translate(424.1953,413.0469)">
			<path id="path22" class="st0" d="M-188.4,322.9c0,0-68.1,35.6-90,78.9c0,0-4.9-21.6-14.2-61.7c-9.3-40.1-37.7-53.9-49.1-48.3
				c-11.4,5.6-14.2,33.5-6.8,49.2c0,0-19.4-20.5-31.8-16.5c-12.3,4-11.4,18.7-20.4,25.5c-8.9,6.8-21.1,2.5-23.1,12.3
				c-2,9.9,3.7,21.4,1.4,27.2c-2.3,5.7-4.2,15.4,22.4,52.2c26.5,36.7,77.2,73.1,117.1,78.1c40,4.9,34.9-6.3,44-13.6
				c9.1-7.3,80.6-49.4,80.6-49.4C-178.6,415-188.9,369.2-188.4,322.9"/>
		</g>
		<g id="g24" transform="translate(645.1133,401.2373)">
			<path id="path26" class="st0" d="M15,357.4c0,0,72.2,69.1,79.9,95.2c0,0,6.8-21.1,19.6-59.6c12.8-38.4,42.3-50.3,53.1-43.7
				c10.8,6.6,11.1,34.7,2.5,49.5c0,0,21.1-18.7,33.2-13.6c12,5.1,9.6,19.4,18.1,26.2c8.5,6.8,17.7,5.1,18.8,15.4
				c1.1,10.3-2.5,20.2,0,26.4c2.5,6.2,2.8,15.4-26.9,50c-29.6,34.6-84.1,66-123.4,67.4c-39.3,1.4-34.1-9.3-42.6-17.4
				c-19.9-13.2-40.5-25.2-61.7-36C0.8,465.2,10.6,411.6,15,357.4"/>
		</g>
		<g id="g28" transform="translate(696.2056,683.6914)">
			<path id="path30" class="st0" d="M62.1-467.6c-13.5-1.4-27-1.8-40.6-1.2c-34.9-135.6-153.2-228.2-281.2-213.3
				c-19.5,2.2-38.6,6.9-56.9,13.9c-188.6,53.1-186.1,220.7-167.7,291c0,0-41.5-15.4-56,24.5c-14.5,40,10.6,69.1,45.2,79.2
				c23.3,6.8,34.3,2.8,38.9,0c48,107.2,152.2,175.9,263.7,162.8C-72.5-124.9,17.3-229,30-357.6c24.3,2.4,47.1-12.3,54.9-35.5
				C96.8-434,84.1-465.8,62.1-467.6"/>
		</g>
		<g id="g32" transform="translate(543.4912,574.9995)">
			<path id="path34" class="st1" d="M-78.6-150.1c44.9,22.3,99.3,4,121.6-40.9c1.3-2.6,2.5-5.3,3.5-8c1.2-3.9-5.4-7.4-7.3-3.9
				c-9.9,20.1-26.1,36.4-46.3,46.3c-23,9.8-48.9,10.3-72.2,1.4c-2.6-0.8-2.5,4.2,0,5.4L-78.6-150.1z"/>
		</g>
		<g id="g36" transform="translate(498.665,646.6572)">
			<path id="path38" class="st1" d="M-119.9-359.4c-3-5.8-8.9-9.4-15.4-9.3c-5,0.7-9.3,3.8-11.6,8.3c-3.2,7-3.6,15-1.2,22.4
				c3.1,12.2,15.4,27.8,29.3,19C-104.9-327.8-113.8-349.9-119.9-359.4"/>
		</g>
		<g id="g40" transform="translate(492.8809,649.0674)">
			<path id="path42" class="st2" d="M-125.2-366.5c-4.9-2.5-8.8,3.9-6.2,7.9c2.6,4,6,7.7,10.5,4.8c1.5-1.2,2.3-3,2-4.9
				C-119.4-362.3-121.8-365.2-125.2-366.5"/>
		</g>
		<g id="g44" transform="translate(608.3203,670.1147)">
			<path id="path46" class="st1" d="M-18.9-428c-3-5.7-9-9.3-15.4-9.1c-4.9,0.7-9.1,3.8-11.4,8.2c-3.1,7.1-3.5,15.2-0.9,22.5
				c3.1,12,15.4,27.5,29,18.7C-4.1-396.5-12.9-418.5-18.9-428"/>
		</g>
		<g id="g48" transform="translate(602.6167,672.5249)">
			<path id="path50" class="st2" d="M-24.1-435c-4.9-2.5-8.8,3.7-6.2,7.7c2.6,4,5.9,7.7,10.3,4.8c1.5-1.1,2.2-2.9,2-4.8
				C-18.5-430.8-20.8-433.7-24.1-435"/>
		</g>
		<g id="g52" transform="translate(525.8979,741.0493)">
			<path id="path54" class="st1" d="M-94.8-635.1c-27.8,6.5-59.3-2.8-63.4-34.9c-0.6-15.1,8.6-28.9,22.8-34.1c8-4,17.6-3,24.5,2.6
				c14,10.8-4.2,36.4-19.3,26.2c-2.9-2-5.9,3.4-3.4,5.9c6.7,6.3,17.1,6.9,24.4,1.2c6.3-4.5,16.8-13.6,14.5-22.7
				c-5.6-17.8-24.6-27.7-42.4-22c-3.3,1-6.4,2.6-9.3,4.6c-19.9,13-25.9,39.5-13.6,59.9c15.6,20.9,43.5,28.5,67.6,18.5
				c1.7,0,0-5.2-2.5-4.8L-94.8-635.1z"/>
		</g>
		<g id="g56" transform="translate(472.7974,658.7075)">
			<path id="path58" class="st1" d="M-143.7-394.6c3.9-5.4,8.8-10,14.4-13.6c6.8-2.6,14.3-3.1,21.5-1.2c2.9,0,4.9-5.1,2.3-6.9
				c-13-9.4-42.1,1.5-41.2,19.3c0,1.7,2.2,1.9,3.1,0.9V-394.6z"/>
		</g>
		<g id="g60" transform="translate(582.6938,686.4224)">
			<path id="path62" class="st1" d="M-42.5-475.6c4.3-6.2,10.6-10.7,17.9-12.7c6.5-0.9,13.2-0.3,19.4,1.8c3.4,0,4.6-5.2,2.5-7.3
				c-13.4-12.2-38.6-1.7-44.3,13.9c-0.4,1.4,0.4,2.8,1.8,3.2c0.9,0.2,1.8,0,2.5-0.6L-42.5-475.6z"/>
		</g>
		<g id="g64" transform="translate(556.7461,635.8926)">
			<path id="path66" class="st1" d="M-66.4-328c7.5,0.5,14,5.3,16.8,12.2c2,8.9,0.2,18.2-5.1,25.6c-1.4,2.8,4,4.3,5.9,2.5
				c8.1-8.1,10.6-20.2,6.5-30.9c-3.3-9.2-12.5-14.9-22.2-13.7c-1.1,0-1.9,0.9-1.9,1.9c0,1.1,0.9,1.9,1.9,1.9L-66.4-328z"/>
		</g>
		<g id="g68" transform="translate(618.603,488.8018)">
			<path id="path70" class="st3" d="M-9.4,101.6c-12.4-2.8-20.2-15-17.5-27.4c2.7-12.4,15-20.2,27.4-17.5C13,59.5,20.8,71.8,18,84.2
				c-0.3,1.6-0.8,3.1-1.5,4.5c-4.5,9.8-15.2,15.2-25.8,13H-9.4z M-208,37.9c-12.4-2.7-20.2-15-17.5-27.4c2.8-12.4,15-20.2,27.4-17.5
				c12.4,2.8,20.2,15,17.5,27.4c-0.3,1.6-0.8,3.1-1.5,4.5c-4.5,9.8-15.2,15.2-25.8,13H-208z M93.2,43.9l-174.4-58l-171.3-57.1
				c-4-1.5-8.5-1.5-12.5,0c-3.9,1.8-7.1,5-8.8,9l-171,399.7c-3.7,8.8,0.4,18.9,9.2,22.7c0.4,0.2,0.9,0.3,1.3,0.5l414.3,136.7
				c8.5,3.3,18.1-1,21.3-9.5c0.2-0.6,0.4-1.2,0.6-1.8L104.6,64.6C106.9,55.8,101.9,46.7,93.2,43.9"/>
		</g>
		<g id="g72" transform="translate(517.4629,532.4229)">
			<path id="path74" class="st4" d="M-102.5-25.8c4.9,1.6,7.5,6.8,5.9,11.7l0,0c-23.8,71.6-2.6,143.4,47.2,159.9
				C6.4,164.3,57.5,126.2,84.2,46.1c1.6-4.9,6.9-7.5,11.7-5.9c4.9,1.6,7.5,6.9,5.9,11.7C72,141.5,10.3,185.2-55.3,163.4
				c-60.5-20.2-86.4-100.6-58.9-183.3C-112.7-24.8-107.4-27.4-102.5-25.8L-102.5-25.8z"/>
		</g>
		<g id="g76" transform="translate(654.9946,504.7881)">
			<path id="path78" class="st0" d="M24.1,54.9c0,0-22.8-35-42.7-18.8C-38.5,52.3,0.5,94.8,0.5,94.8c-7.7,13.8-18.2,25.8-30.9,35.3
				c-17,10-26.7,32.6-8.8,39.8c12.4,4.3,25.6,5.4,38.6,3.2c0,0-27,28.5-7.6,40.1c8.9,7,21.3,7.6,30.9,1.4c0,0-15.4,22.4,20.5,22.4
				c36,0,65.9-37,80.9-64.7c18.3-28.3,13.4-65.7-11.6-88.3C87.1,64.8,56,54.5,24.1,54.9"/>
		</g>
		<g id="g80" transform="translate(438.0933,512.8213)">
			<path id="path82" class="st0" d="M-175.6,31.5c-32.7,9.8-58.6,35.1-69.1,67.6c-11.6,37.5,25.5,69.7,46.3,80.5
				c20.8,10.8,52.5,17.7,64.3,12.3c7-3.4,11.4-10.6,11.4-18.4c12.3-1.7,23.2-9,29.3-19.9c8.9-17.7-17.4-29.9-17.4-29.9
				s30.9,3.2,32.4-18.1c1.5-21.3-53.2-38.4-64.8-48.8c0,0,29-30.9,12.5-46.3S-159.3,5.6-175.6,31.5"/>
		</g>
	</g>
	<g>
		<path class="st5" d="M1504.7,831.6c0.4,4.3,1.5,8.6,3.2,12.7C1506.2,840.4,1505.1,836.1,1504.7,831.6z"/>
		<g class="st6">
			<path class="st7" d="M1101.4,242.1c-11.4,0-22.5,1.6-33,4.7V146.3c0-12-4.9-22.8-12.7-30.6c-7.9-7.9-18.7-12.7-30.7-12.7
				c-23.8,0-43.4,19.5-43.4,43.4v197c0,2.6,0.2,5.2,0.7,7.6c-0.5,4.2-0.7,8.4-0.7,12.7c0,67.1,53.6,121.6,119.8,121.6
				c66.1,0,119.7-54.4,119.7-121.6C1221.1,296.6,1167.5,242.1,1101.4,242.1z M1101.4,416.6c-18.2,0-33-23.7-33-52.9
				c0-29.2,14.7-52.9,33-52.9c18.2,0,33,23.7,33,52.9C1134.4,392.9,1119.6,416.6,1101.4,416.6z"/>
		</g>
		<g class="st6">
			<path class="st8" d="M1114.8,641.1c-11.4,0-22.5,1.6-33,4.7V545.3c0-11.9-4.9-22.8-12.7-30.6c-7.9-7.9-18.7-12.7-30.7-12.7
				c-23.8,0-43.4,19.5-43.4,43.4v197.1c0,2.6,0.2,5.1,0.7,7.5c-0.5,4.2-0.7,8.5-0.7,12.8c0,67.1,53.6,121.6,119.8,121.6
				c66.1,0,119.7-54.5,119.7-121.6S1180.9,641.1,1114.8,641.1z M1114.8,815.6c-18.2,0-33-23.7-33-52.9c0-29.2,14.7-52.9,33-52.9
				c18.2,0,33,23.7,33,52.9C1147.8,791.9,1133,815.6,1114.8,815.6z"/>
		</g>
		<path class="st9" d="M1620.1,242.1c-11.4,0-22.5,1.6-33,4.7V146.3c0-12-4.9-22.8-12.7-30.6c-7.9-7.9-18.7-12.7-30.6-12.7
			c-23.9,0-43.4,19.5-43.4,43.4v197c0,2.6,0.2,5.2,0.7,7.6c-0.5,4.2-0.7,8.4-0.7,12.7c0,67.1,53.6,121.6,119.7,121.6
			c66.2,0,119.8-54.4,119.8-121.6C1739.9,296.6,1686.3,242.1,1620.1,242.1z M1620.1,416.6c-18.2,0-33-23.7-33-52.9
			c0-29.2,14.8-52.9,33-52.9c18.2,0,33,23.7,33,52.9C1653.1,392.9,1638.4,416.6,1620.1,416.6z"/>
		<g class="st6">
			<path class="st7" d="M1480.4,369.9c0.1-2.1,0.1-4.2,0.1-6.2c0-67.1-53.7-121.6-119.8-121.6S1241,296.6,1241,363.7
				c0,67.1,53.7,121.6,119.8,121.6c17.2,0,33.5-3.6,48.3-10.4c7.6,6.4,17.3,10.4,28,10.4c23.9,0,43.4-19.5,43.4-43.4v-68.5
				c0-1.1-0.1-2.2-0.1-3.3V369.9z M1360.8,416.6c-18.2,0-33-23.7-33-52.9c0-29.2,14.7-52.9,33-52.9c18.2,0,33,23.7,33,52.9
				C1393.8,392.9,1379,416.6,1360.8,416.6z"/>
		</g>
		<g class="st6">
			<path class="st8" d="M1493.8,768.9c0.1-2.1,0.1-4.1,0.1-6.2c0-67.1-53.7-121.6-119.8-121.6s-119.8,54.4-119.8,121.6
				s53.7,121.6,119.8,121.6c17.2,0,33.6-3.7,48.4-10.4c7.6,6.5,17.3,10.4,28,10.4c23.9,0,43.4-19.5,43.4-43.4v-68.5
				c0-1.1-0.1-2.2-0.1-3.3V768.9z M1374.2,815.6c-18.2,0-33-23.7-33-52.9c0-29.2,14.7-52.9,33-52.9c18.2,0,33,23.7,33,52.9
				C1407.2,791.9,1392.4,815.6,1374.2,815.6z"/>
		</g>
		<g class="st6">
			<path class="st8" d="M2022.5,768.9c0.1-2.1,0.1-4.1,0.1-6.2c0-66.7-53.7-120.7-119.8-120.7s-119.8,54.1-119.8,120.7
				s53.7,120.7,119.8,120.7c17.2,0,33.6-3.7,48.4-10.3c7.6,6.5,17.4,10.3,28,10.3c23.9,0,43.4-19.4,43.4-43.1v-68
				c0-1.1-0.1-2.2-0.1-3.3V768.9z M1894.9,814.4c-18.2,0-33-23.5-33-52.5c0-29,14.7-52.5,33-52.5c18.2,0,33,23.5,33,52.5
				C1927.9,790.9,1913.1,814.4,1894.9,814.4z"/>
		</g>
		<path class="st10" d="M2276.6,768.9c0.1-2.1,0.1-4.1,0.1-6.2c0-67.1-53.7-121.6-119.8-121.6c-66.1,0-119.8,54.4-119.8,121.6
			s53.7,121.6,119.8,121.6c17.2,0,33.6-3.7,48.4-10.4c7.6,6.5,17.3,10.4,28,10.4c23.9,0,43.4-19.5,43.4-43.4v-68.5
			c0-1.1-0.1-2.2-0.1-3.3V768.9z M2157,815.6c-18.2,0-33-23.7-33-52.9c0-29.2,14.7-52.9,33-52.9c18.2,0,33,23.7,33,52.9
			C2189.9,791.9,2175.2,815.6,2157,815.6z"/>
		<path class="st5" d="M2001.1,511.8v5.1c0,2.1-0.1,4.3-0.5,6.4C2000.9,519.5,2001.1,515.7,2001.1,511.8z"/>
		<path class="st5" d="M1827.9,570.8c-6.2-6.5-10.4-15-11.5-24.4C1818.3,554.2,1821.9,562.7,1827.9,570.8z"/>
		<path class="st9" d="M2001.1,285.5v226.3c0,3.9-0.1,7.7-0.5,11.4c-3.6,42.5-28.5,79.9-86.2,79.9c-47.7,0-73.2-15-86.4-32.4
			c-6.1-8-9.7-16.5-11.5-24.4c-0.1-0.5-0.1-1-0.1-1.5c-0.1-1.3-0.2-2.5-0.2-3.8c0-11.9,4.9-22.8,12.7-30.6
			c7.9-7.9,18.7-12.7,30.6-12.7s22.8,4.9,30.7,12.7c4.5,4.5,8,9.9,10.2,16c0,0,14.1,5.8,14.1-9.6v-36.6c-10.7,3.2-22.1,4.9-33.9,4.9
			c-58.4,0-107.1-42.5-117.6-98.7c-1.4-7.4-2.1-15.1-2.1-22.9v-78.2c0-23.8,19.5-43.4,43.4-43.4c10.7,0,20.5,3.9,28,10.4
			c0.9,0.7,1.7,1.5,2.6,2.4c7.9,7.9,12.7,18.7,12.7,30.6v78.2c0,29.2,15,52.9,33.4,52.9c18.5,0,33.5-23.7,33.5-52.9v-78.2
			c0-13,5.9-24.8,15-32.7c7.6-6.7,17.5-10.7,28.3-10.7c11.9,0,22.8,4.9,30.6,12.7C1996.2,262.7,2001.1,273.6,2001.1,285.5z"/>
		<path class="st9" d="M1762.8,386.6c-1.4-4.2-2.1-8.7-2.1-13.4v-9.5C1760.7,371.5,1761.4,379.2,1762.8,386.6z"/>
		<path class="st10" d="M1749.7,840.9c0,11.9-4.9,22.8-12.7,30.6c-7.9,7.9-18.7,12.7-30.6,12.7h-145c-11.4,0-22-4.5-29.7-11.9
			c-1.1-1.1-2.2-2.1-3.2-3.4c-1-1.1-1.9-2.3-2.8-3.6c-0.9-1.2-1.6-2.5-2.4-3.8c-0.7-1.3-1.4-2.6-1.9-3.9c-1.7-4.1-2.8-8.4-3.2-12.7
			c-0.3-3.3-0.3-6.6,0.2-9.8c0.1-1.1,0.2-2.1,0.4-3.1c0.3-1.4,0.6-2.8,1.1-4.2c0.9-2.7,2-5.4,3.3-7.8c1.6-3.2,3.8-6.4,6.4-9.2
			l77.8-83.1h-46.1c-23.9,0-43.4-19.5-43.4-43.4c0-23.8,19.5-43.4,43.4-43.4h145c9.8,0,18.8,3.3,26,8.9c0.5,0.3,1,0.6,1.5,1.1
			c0.9,0.7,1.9,1.4,2.7,2.3c9.1,8.5,13.7,20.1,13.7,31.7c0,10.7-3.9,21.3-11.7,29.6l-77.5,82.8h45.2
			C1730.2,797.5,1749.7,817,1749.7,840.9z"/>
		<path class="st5" d="M1509.7,806.8c-1.3,2.4-2.4,5.1-3.3,7.8C1507.1,811.9,1508.2,809.3,1509.7,806.8z"/>
		<path d="M1816.4,546.4c-0.1-0.5-0.3-0.9-0.4-1.4l0.2-0.1C1816.3,545.4,1816.3,545.9,1816.4,546.4z"/>
		<path class="st10" d="M2532.9,690.6v4.9c0,27.2-22.3,49.5-49.5,49.5c-21.8,0-40.4-14.3-46.9-34.1l-0.1-0.1
			c-9.9-11.6-39.1,14.3-39.1,14.3v115.6c0,23.8-19.5,43.4-43.4,43.4h-9.4c-23.8,0-43.4-19.5-43.4-43.4V684.5
			c0-23.8,19.5-43.4,43.4-43.4h9.4c17.7,0,33,10.7,39.6,26c9.9-5.5,20.9-11,31.8-15.3c25.7-10.2,46.9-10.9,56.8-10.6h0.4
			c0.3-0.1,0.5-0.1,0.8-0.1c13.6,0,26,5.6,34.9,14.5C2527.3,664.7,2532.9,677,2532.9,690.6z"/>
	</g>
</g>
</svg>
