<?xml version="1.0" encoding="utf-8"?>
<!-- Generator: Adobe Illustrator 23.0.5, SVG Export Plug-In . SVG Version: 6.00 Build 0)  -->
<svg version="1.1"
	width="160px" height="47"
	id="svg2" xmlns:cc="http://creativecommons.org/ns#" xmlns:dc="http://purl.org/dc/elements/1.1/" xmlns:rdf="http://www.w3.org/1999/02/22-rdf-syntax-ns#" xmlns:svg="http://www.w3.org/2000/svg"
	xmlns="http://www.w3.org/2000/svg" xmlns:xlink="http://www.w3.org/1999/xlink" x="0px" y="0px" viewBox="0 250 2682.9 987.2"
	style="enable-background:new 0 0 2532.9 987.2;" xml:space="preserve">
<style type="text/css">
	.st0{fill:#FFDCA5;}
	.st1{fill:#5E403E;}
	.st2{fill:#FFFFFF;}
	.st3{fill:#6953F8;}
	.st4{fill:#FF88B3;}
	.st5{opacity:0.33;}
	.st6{enable-background:new    ;}
	.st7{fill:#FF87B2;}
	.st8{fill:#6752F8;}
	.st9{fill:#FF87B2;enable-background:new    ;}
	.st10{fill:#6752F8;enable-background:new    ;}
</style>
<g>
	<g>
		<path class="st5" d="M1504.7,831.6c0.4,4.3,1.5,8.6,3.2,12.7C1506.2,840.4,1505.1,836.1,1504.7,831.6z"/>
		<g class="st6" transform="translate(-980,395.0469)">
			<path class="st7" d="M1101.4,242.1c-11.4,0-22.5,1.6-33,4.7V146.3c0-12-4.9-22.8-12.7-30.6c-7.9-7.9-18.7-12.7-30.7-12.7
				c-23.8,0-43.4,19.5-43.4,43.4v197c0,2.6,0.2,5.2,0.7,7.6c-0.5,4.2-0.7,8.4-0.7,12.7c0,67.1,53.6,121.6,119.8,121.6
				c66.1,0,119.7-54.4,119.7-121.6C1221.1,296.6,1167.5,242.1,1101.4,242.1z M1101.4,416.6c-18.2,0-33-23.7-33-52.9
				c0-29.2,14.7-52.9,33-52.9c18.2,0,33,23.7,33,52.9C1134.4,392.9,1119.6,416.6,1101.4,416.6z"/>
		</g>
		<g class="st6" transform="translate(150,0)">
			<path class="st8" d="M1114.8,641.1c-11.4,0-22.5,1.6-33,4.7V545.3c0-11.9-4.9-22.8-12.7-30.6c-7.9-7.9-18.7-12.7-30.7-12.7
				c-23.8,0-43.4,19.5-43.4,43.4v197.1c0,2.6,0.2,5.1,0.7,7.5c-0.5,4.2-0.7,8.5-0.7,12.8c0,67.1,53.6,121.6,119.8,121.6
				c66.1,0,119.7-54.5,119.7-121.6S1180.9,641.1,1114.8,641.1z M1114.8,815.6c-18.2,0-33-23.7-33-52.9c0-29.2,14.7-52.9,33-52.9
				c18.2,0,33,23.7,33,52.9C1147.8,791.9,1133,815.6,1114.8,815.6z"/>
		</g>
		<g class="st6" transform="translate(-980,405.0469)">
			<path class="st9" d="M1620.1,242.1c-11.4,0-22.5,1.6-33,4.7V146.3c0-12-4.9-22.8-12.7-30.6c-7.9-7.9-18.7-12.7-30.6-12.7
				c-23.9,0-43.4,19.5-43.4,43.4v197c0,2.6,0.2,5.2,0.7,7.6c-0.5,4.2-0.7,8.4-0.7,12.7c0,67.1,53.6,121.6,119.7,121.6
				c66.2,0,119.8-54.4,119.8-121.6C1739.9,296.6,1686.3,242.1,1620.1,242.1z M1620.1,416.6c-18.2,0-33-23.7-33-52.9
				c0-29.2,14.8-52.9,33-52.9c18.2,0,33,23.7,33,52.9C1653.1,392.9,1638.4,416.6,1620.1,416.6z"/>
		</g>
		
		<g class="st6" transform="translate(-980,395.0469)">
			<path class="st7" d="M1480.4,369.9c0.1-2.1,0.1-4.2,0.1-6.2c0-67.1-53.7-121.6-119.8-121.6S1241,296.6,1241,363.7
				c0,67.1,53.7,121.6,119.8,121.6c17.2,0,33.5-3.6,48.3-10.4c7.6,6.4,17.3,10.4,28,10.4c23.9,0,43.4-19.5,43.4-43.4v-68.5
				c0-1.1-0.1-2.2-0.1-3.3V369.9z M1360.8,416.6c-18.2,0-33-23.7-33-52.9c0-29.2,14.7-52.9,33-52.9c18.2,0,33,23.7,33,52.9
				C1393.8,392.9,1379,416.6,1360.8,416.6z"/>
		</g>
		<g class="st6" transform="translate(-980,395.0469)">
			<path class="st9" d="M2001.1,285.5v226.3c0,3.9-0.1,7.7-0.5,11.4c-3.6,42.5-28.5,79.9-86.2,79.9c-47.7,0-73.2-15-86.4-32.4
				c-6.1-8-9.7-16.5-11.5-24.4c-0.1-0.5-0.1-1-0.1-1.5c-0.1-1.3-0.2-2.5-0.2-3.8c0-11.9,4.9-22.8,12.7-30.6
				c7.9-7.9,18.7-12.7,30.6-12.7s22.8,4.9,30.7,12.7c4.5,4.5,8,9.9,10.2,16c0,0,14.1,5.8,14.1-9.6v-36.6c-10.7,3.2-22.1,4.9-33.9,4.9
				c-58.4,0-107.1-42.5-117.6-98.7c-1.4-7.4-2.1-15.1-2.1-22.9v-78.2c0-23.8,19.5-43.4,43.4-43.4c10.7,0,20.5,3.9,28,10.4
				c0.9,0.7,1.7,1.5,2.6,2.4c7.9,7.9,12.7,18.7,12.7,30.6v78.2c0,29.2,15,52.9,33.4,52.9c18.5,0,33.5-23.7,33.5-52.9v-78.2
				c0-13,5.9-24.8,15-32.7c7.6-6.7,17.5-10.7,28.3-10.7c11.9,0,22.8,4.9,30.6,12.7C1996.2,262.7,2001.1,273.6,2001.1,285.5z"/>
		</g>
		<g class="st6" transform="translate(150,0)">
			<path class="st8" d="M1493.8,768.9c0.1-2.1,0.1-4.1,0.1-6.2c0-67.1-53.7-121.6-119.8-121.6s-119.8,54.4-119.8,121.6
				s53.7,121.6,119.8,121.6c17.2,0,33.6-3.7,48.4-10.4c7.6,6.5,17.3,10.4,28,10.4c23.9,0,43.4-19.5,43.4-43.4v-68.5
				c0-1.1-0.1-2.2-0.1-3.3V768.9z M1374.2,815.6c-18.2,0-33-23.7-33-52.9c0-29.2,14.7-52.9,33-52.9c18.2,0,33,23.7,33,52.9
				C1407.2,791.9,1392.4,815.6,1374.2,815.6z"/>
		</g>
		<g class="st6" transform="translate(150,0)">
			<path class="st8" d="M2022.5,768.9c0.1-2.1,0.1-4.1,0.1-6.2c0-66.7-53.7-120.7-119.8-120.7s-119.8,54.1-119.8,120.7
				s53.7,120.7,119.8,120.7c17.2,0,33.6-3.7,48.4-10.3c7.6,6.5,17.4,10.3,28,10.3c23.9,0,43.4-19.4,43.4-43.1v-68
				c0-1.1-0.1-2.2-0.1-3.3V768.9z M1894.9,814.4c-18.2,0-33-23.5-33-52.5c0-29,14.7-52.5,33-52.5c18.2,0,33,23.5,33,52.5
				C1927.9,790.9,1913.1,814.4,1894.9,814.4z"/>
		</g>
		<g class="st6" transform="translate(150,0)">
			<path class="st10" d="M2276.6,768.9c0.1-2.1,0.1-4.1,0.1-6.2c0-67.1-53.7-121.6-119.8-121.6c-66.1,0-119.8,54.4-119.8,121.6
				s53.7,121.6,119.8,121.6c17.2,0,33.6-3.7,48.4-10.4c7.6,6.5,17.3,10.4,28,10.4c23.9,0,43.4-19.5,43.4-43.4v-68.5
				c0-1.1-0.1-2.2-0.1-3.3V768.9z M2157,815.6c-18.2,0-33-23.7-33-52.9c0-29.2,14.7-52.9,33-52.9c18.2,0,33,23.7,33,52.9
				C2189.9,791.9,2175.2,815.6,2157,815.6z"/>
		</g>
		<path class="st5" d="M2001.1,511.8v5.1c0,2.1-0.1,4.3-0.5,6.4C2000.9,519.5,2001.1,515.7,2001.1,511.8z"/>
		<path class="st5" d="M1827.9,570.8c-6.2-6.5-10.4-15-11.5-24.4C1818.3,554.2,1821.9,562.7,1827.9,570.8z"/>		
		<path class="st9" d="M1762.8,386.6c-1.4-4.2-2.1-8.7-2.1-13.4v-9.5C1760.7,371.5,1761.4,379.2,1762.8,386.6z"/>
		<g class="st6" transform="translate(150,0)">
			<path class="st10" d="M1749.7,840.9c0,11.9-4.9,22.8-12.7,30.6c-7.9,7.9-18.7,12.7-30.6,12.7h-145c-11.4,0-22-4.5-29.7-11.9
				c-1.1-1.1-2.2-2.1-3.2-3.4c-1-1.1-1.9-2.3-2.8-3.6c-0.9-1.2-1.6-2.5-2.4-3.8c-0.7-1.3-1.4-2.6-1.9-3.9c-1.7-4.1-2.8-8.4-3.2-12.7
				c-0.3-3.3-0.3-6.6,0.2-9.8c0.1-1.1,0.2-2.1,0.4-3.1c0.3-1.4,0.6-2.8,1.1-4.2c0.9-2.7,2-5.4,3.3-7.8c1.6-3.2,3.8-6.4,6.4-9.2
				l77.8-83.1h-46.1c-23.9,0-43.4-19.5-43.4-43.4c0-23.8,19.5-43.4,43.4-43.4h145c9.8,0,18.8,3.3,26,8.9c0.5,0.3,1,0.6,1.5,1.1
				c0.9,0.7,1.9,1.4,2.7,2.3c9.1,8.5,13.7,20.1,13.7,31.7c0,10.7-3.9,21.3-11.7,29.6l-77.5,82.8h45.2
				C1730.2,797.5,1749.7,817,1749.7,840.9z"/>
		</g>
		<path class="st5" d="M1509.7,806.8c-1.3,2.4-2.4,5.1-3.3,7.8C1507.1,811.9,1508.2,809.3,1509.7,806.8z"/>
		<path d="M1816.4,546.4c-0.1-0.5-0.3-0.9-0.4-1.4l0.2-0.1C1816.3,545.4,1816.3,545.9,1816.4,546.4z"/>
		<g class="st6" transform="translate(150,0)">
			<path class="st10" d="M2532.9,690.6v4.9c0,27.2-22.3,49.5-49.5,49.5c-21.8,0-40.4-14.3-46.9-34.1l-0.1-0.1
				c-9.9-11.6-39.1,14.3-39.1,14.3v115.6c0,23.8-19.5,43.4-43.4,43.4h-9.4c-23.8,0-43.4-19.5-43.4-43.4V684.5
				c0-23.8,19.5-43.4,43.4-43.4h9.4c17.7,0,33,10.7,39.6,26c9.9-5.5,20.9-11,31.8-15.3c25.7-10.2,46.9-10.9,56.8-10.6h0.4
				c0.3-0.1,0.5-0.1,0.8-0.1c13.6,0,26,5.6,34.9,14.5C2527.3,664.7,2532.9,677,2532.9,690.6z"/>
		</g>
	</g>
</g>
</svg>
