<svg id="Layer_1" data-name="Layer 1" xmlns="http://www.w3.org/2000/svg" width="43" height="43" viewBox="0 0 30.96 30.96"><defs><style>.cls-1{fill:#0c0c0c;}</style></defs><title>icons baby bazaar</title><path class="cls-1" d="M27.86,6.71a3.09,3.09,0,0,0-2.06,5.4V16H5.16V12.11a3.1,3.1,0,1,0-4.13,0V31H5.16V28.9H25.8V31h4.13V12.11a3.09,3.09,0,0,0-2.07-5.4ZM4.13,29.93H2.06V12.72a2.83,2.83,0,0,0,.5.13h0a2.84,2.84,0,0,0,.51.05,2.73,2.73,0,0,0,.5-.05h0a2.83,2.83,0,0,0,.5-.13Zm.21-18.49h0a1.45,1.45,0,0,1-.26.17l0,0-.27.11,0,0a2.08,2.08,0,0,1-1.21,0l-.05,0-.27-.11,0,0a1.45,1.45,0,0,1-.26-.17h0a2.07,2.07,0,1,1,2.48,0Zm3.4,16.42H5.16V20.64H7.74Zm0-8.25H5.16V17H7.74Zm3.61,8.25H8.77V20.64h2.58Zm0-8.25H8.77V17h2.58ZM15,27.86H12.38V20.64H15Zm0-8.25H12.38V17H15Zm3.62,8.25H16V20.64h2.58Zm0-8.25H16V17h2.58Zm3.61,8.25H19.61V20.64h2.58Zm0-8.25H19.61V17h2.58Zm3.61,8.25H23.22V20.64H25.8Zm0-8.25H23.22V17H25.8Zm3.1,10.32H26.83V12.72a2.83,2.83,0,0,0,.5.13h0a2.73,2.73,0,0,0,.5.05,2.84,2.84,0,0,0,.51-.05h0a2.83,2.83,0,0,0,.5-.13Zm.2-18.49h0a1.92,1.92,0,0,1-.26.17l0,0-.27.11-.05,0a2.11,2.11,0,0,1-1.22,0l0,0a1.69,1.69,0,0,1-.27-.11l0,0a1.45,1.45,0,0,1-.26-.17h0a2.06,2.06,0,1,1,3.3-1.65A2,2,0,0,1,29.1,11.44Z"/><path class="cls-1" d="M8.54,11.42l-.25,1.42a.51.51,0,0,0,.21.5.5.5,0,0,0,.54,0l1.28-.67,1.28.67a.48.48,0,0,0,.24.06.49.49,0,0,0,.3-.1.51.51,0,0,0,.21-.5l-.25-1.42,1-1a.48.48,0,0,0,.13-.53.51.51,0,0,0-.41-.35l-1.43-.21-.57-1.15a4.39,4.39,0,0,1,4.11-4V10a1,1,0,0,0-.24.22l-1.27,1.82a.85.85,0,0,0-.07.89.93.93,0,0,0,.83.48h2.54a.93.93,0,0,0,.83-.48.86.86,0,0,0-.07-.9l-1.27-1.81A1,1,0,0,0,16,10V4.2a4.38,4.38,0,0,1,3.59,4.06h-1a.51.51,0,0,0-.52.51v2.58a.52.52,0,0,0,.52.52h3.09a.52.52,0,0,0,.52-.52V8.77a.51.51,0,0,0-.52-.51h-1A5.42,5.42,0,0,0,16,3.16V.52a.52.52,0,1,0-1,0V3.11a5.42,5.42,0,0,0-5.13,5L9.22,9.32l-1.43.21a.52.52,0,0,0-.42.35.5.5,0,0,0,.14.53ZM21.16,9.29v1.55H19.09V9.29Zm-5.68,1.65,1,1.44h-2ZM9.64,10.3A.53.53,0,0,0,10,10l.29-.6.29.6a.53.53,0,0,0,.39.28l.67.1-.48.46a.52.52,0,0,0-.15.46l.11.66-.59-.31a.51.51,0,0,0-.48,0L9.49,12l.11-.66a.52.52,0,0,0-.15-.46L9,10.4Z"/></svg>