<?xml version="1.0" encoding="UTF-8"?>
<svg viewBox="0 0 557.55133 281.11374" width="214" height="300" xmlns="http://www.w3.org/2000/svg">
 <g transform="translate(-81.277 -99.572)">
  <path d="m418.15 140.1c-4.14-14.71-11.895-29.583-27.263-35.413-10.419-3.9527-22.357-0.0869-30.589 5.6814-11.467 8.0356-14.361 25.635-9.4599 38.697 5.3403 14.232 23.586 22.391 21.842 39.578-1.5735 15.509-3.9048 31.409-2.6788 46.89 82.893 42.207 169.67 76.009 254.43 114.16 8.2049 3.6928 14.091 14.951 9.0037 22.056-7.051 9.8477-22.011 3.5208-32.686 2.5344-167.41-15.469-334.81-32.996-502.12-50.189-7.7587-0.79731-16.24-7.0342-13.234-16.128 3.5975-10.88 17.431-11.338 26.821-13.573 84.724-20.165 170.01-38.241 254.76-58.316l3.0157-0.89842" fill="none" stroke="#000" stroke-width="7"/>
 </g>
</svg>
