<svg id="Layer_1" data-name="Layer 1" xmlns="http://www.w3.org/2000/svg" width="45" height="33" viewBox="0 0 32 24"><defs><style>.cls-1{fill:#0c0c0c;}</style></defs><title>icons baby bazaar</title><path class="cls-1" d="M30.74,2.67H30.4V1.47A1.47,1.47,0,0,0,28.93,0H3.07A1.47,1.47,0,0,0,1.6,1.47v1.2H1.26A1.26,1.26,0,0,0,0,3.93V7.8A1.27,1.27,0,0,0,1.26,9.07H1.6a15.31,15.31,0,0,0,.14,2h0l0,.13A15,15,0,0,0,3.53,16.4l0,.06q.24.43.51.84h0c.17.26.34.5.52.74l.18.25.36.44.24.29.46.5q.2.21.42.42l.21.2.42.38.11.09c.3.26.61.5.93.73l.13.09c.16.12.33.23.5.34l.17.1c.3.19.61.37.92.53l.21.12.45.21.38.17.39.16q.38.15.75.27l.09,0,.45.15v0A13.26,13.26,0,0,0,16,24a13.39,13.39,0,0,0,3.64-.51v0l.45-.15.09,0q.38-.12.75-.27l.39-.16.38-.17.45-.21.22-.12c.31-.16.61-.34.91-.53l.17-.1c.17-.11.34-.22.5-.34l.13-.09c.32-.23.63-.47.93-.73l.11-.09.42-.38.21-.2.42-.42.46-.5.24-.29.36-.44.18-.25c.18-.24.36-.48.52-.74h0q.27-.4.51-.84l0-.06a15,15,0,0,0,1.77-5.16l0-.13h0a15.31,15.31,0,0,0,.14-2h.34A1.27,1.27,0,0,0,32,7.8V3.93a1.26,1.26,0,0,0-1.26-1.26ZM1.26,8a.19.19,0,0,1-.19-.2V3.93a.19.19,0,0,1,.19-.2H5.33V8ZM9.48,5.19s0,.09,0,.14,0,.14.05.21,0,.14,0,.21V6c0,.08,0,.15,0,.22s0,.14-.05.21l-.06.2a2.14,2.14,0,0,1-.1.22L9.28,7a1.37,1.37,0,0,1-.18.24L9,7.32l-.25.22L8.7,7.6a1.57,1.57,0,0,1-.33.19l0,0a2.67,2.67,0,0,1-.4.13h0a2.2,2.2,0,0,1-.44,0H6.4V3.73h.94A2.28,2.28,0,0,1,9.48,5.19ZM5.56,17.57l0-.05A14.24,14.24,0,0,1,3,11.9a7.6,7.6,0,0,1,1.56-.17,7.75,7.75,0,0,1,7.74,7.74,7.61,7.61,0,0,1-.5,2.71l-.12,0-.54-.21-.21-.09-.66-.32L10,21.37l-.39-.22L9.26,21l-.36-.24a2.9,2.9,0,0,1-.29-.19c-.19-.13-.38-.27-.56-.42l-.26-.21-.35-.3-.24-.21L6.77,19l-.12-.12c-.18-.19-.37-.4-.54-.6L6,18.17q-.25-.3-.48-.6Zm14.17,1.9a7.75,7.75,0,0,1,7.74-7.74A7.6,7.6,0,0,1,29,11.9a14.24,14.24,0,0,1-2.55,5.62l0,.05q-.23.3-.48.6l-.07.08c-.17.2-.36.4-.54.6l-.12.11-.43.43-.24.21-.35.3-.26.21c-.18.15-.37.29-.56.42a2.9,2.9,0,0,1-.29.19l-.36.24-.31.19-.39.22-.28.15-.66.32-.21.08-.54.22-.12,0a7.61,7.61,0,0,1-.5-2.71Zm9.48-8.62a8.64,8.64,0,0,0-1.74-.18,8.8,8.8,0,0,0-8.8,8.8,8.69,8.69,0,0,0,.55,3,12.27,12.27,0,0,1-6.44,0,8.69,8.69,0,0,0,.55-3,8.8,8.8,0,0,0-8.8-8.8,8.64,8.64,0,0,0-1.74.18,13.2,13.2,0,0,1-.12-1.78h4.8l.33,0h0a3.41,3.41,0,0,0,1-.26h0c.09,0,.19-.09.28-.15h0l.25-.16,0,0a1.92,1.92,0,0,0,.22-.18l.05,0L9.82,8l0,0,0,0A1.2,1.2,0,0,0,10,7.77l0,0,.15-.24,0,0a3.28,3.28,0,0,0,.43-1.58h0a3.2,3.2,0,0,0-3.2-3.19H2.67V1.46a.39.39,0,0,1,.4-.39H28.93a.39.39,0,0,1,.4.4v1.2h-4.8a3.2,3.2,0,0,0-3.2,3.2h0a3.28,3.28,0,0,0,.43,1.58l0,0,.15.24a.1.1,0,0,1,0,0,1.63,1.63,0,0,0,.17.2l0,0,0,0c.06.07.13.13.19.19l.05,0,.22.17,0,0,.25.16h0c.09.06.19.1.28.15h0a3.34,3.34,0,0,0,1,.26h0l.33,0h4.8a13.2,13.2,0,0,1-.12,1.78ZM25.6,8H24.53a2.2,2.2,0,0,1-.44,0h0l-.39-.13-.05,0a1.57,1.57,0,0,1-.33-.19l-.07-.06L23,7.32l-.08-.1A1.88,1.88,0,0,1,22.72,7l-.08-.15a2.14,2.14,0,0,1-.1-.22l-.06-.2c0-.07,0-.14-.05-.21s0-.14,0-.22V5.75a1.49,1.49,0,0,1,0-.21,1.6,1.6,0,0,1,.05-.21s0-.09,0-.14a2.28,2.28,0,0,1,2.14-1.46h.94Zm5.33-.2a.19.19,0,0,1-.19.2H26.67V3.73h4.07a.19.19,0,0,1,.19.2Zm0,0"/></svg>