<svg id="Layer_1" data-name="Layer 1" xmlns="http://www.w3.org/2000/svg" width="35" height="35" viewBox="0 0 113.39 113.39"><defs><style>.cls-1{fill:#6354f4;}.cls-2{fill:#fff;fill-rule:evenodd;}</style></defs><title>icons</title><circle class="cls-1" cx="56.7" cy="56.59" r="56.59"/><path class="cls-2" d="M36.68,31H76.55a6.72,6.72,0,0,1,6.88,6.88V77.75a6.72,6.72,0,0,1-6.88,6.88H36.68a6.72,6.72,0,0,1-6.88-6.88V37.88A6.72,6.72,0,0,1,36.68,31Zm32.19,6a2.42,2.42,0,0,0-2.42,2.41v5.78a2.43,2.43,0,0,0,2.42,2.42h6.06a2.42,2.42,0,0,0,2.41-2.42V39.37A2.41,2.41,0,0,0,74.93,37Zm8.5,16.72H72.65a15.57,15.57,0,0,1,.69,4.6,16.68,16.68,0,0,1-33.34,0,15.9,15.9,0,0,1,.68-4.6H35.76V76.34a2.14,2.14,0,0,0,2.13,2.13H75.24a2.14,2.14,0,0,0,2.13-2.13Zm-20.7-6.42A10.45,10.45,0,1,0,67.44,57.7,10.61,10.61,0,0,0,56.67,47.26Zm0,0"/></svg>