<svg id="Layer_1" data-name="Layer 1" xmlns="http://www.w3.org/2000/svg" width="35" height="35" viewBox="0 0 113.39 113.39"><defs><style>.cls-1{fill:#6354f4;}.cls-2{fill:#fff;}</style></defs><title>icons</title><circle class="cls-1" cx="56.7" cy="56.59" r="56.59"/><path class="cls-2" d="M72.65,24.24l-8.62,0c-9.68,0-15.93,6.42-15.93,16.35v7.54H39.43a1.36,1.36,0,0,0-1.35,1.36V60.39a1.36,1.36,0,0,0,1.35,1.36H48.1V89.31a1.34,1.34,0,0,0,1.35,1.35h11.3a1.35,1.35,0,0,0,1.36-1.35V61.75H72.24a1.35,1.35,0,0,0,1.35-1.36V49.47a1.39,1.39,0,0,0-.4-1,1.37,1.37,0,0,0-1-.4H62.11V41.72c0-3.07.73-4.63,4.73-4.63h5.81A1.35,1.35,0,0,0,74,35.74V25.59a1.34,1.34,0,0,0-1.35-1.35Zm0,0"/></svg>