<?xml version="1.0" encoding="utf-8"?>
<!-- Generator: Adobe Illustrator 23.0.5, SVG Export Plug-In . SVG Version: 6.00 Build 0)  -->
<svg version="1.1" id="Layer_1" xmlns="http://www.w3.org/2000/svg" xmlns:xlink="http://www.w3.org/1999/xlink" x="0px" y="0px"
	 viewBox="7.55 7 18.24 18.77" width="20" height="21" style="enable-background:new 0 0 32 32;" xml:space="preserve">
<style type="text/css">
	.st0{fill:#EF709D;}
</style>
<g>
	<g>
		<path class="st0" d="M25.1,12.8c0.1-0.2,0.1-0.5,0.2-0.8c0-0.5-0.1-1.3-0.9-2c0.1-0.4,0.1-0.9-0.3-1.5c-0.4-0.7-1.2-1.2-2.4-1.5
			c-0.5-0.1-1.1-0.2-1.8-0.2c-0.4,0-0.8,0-1.3,0.1c-2.5-0.1-5,0.3-5.2,0.3l-0.9,0.1C12.3,7.1,12,7,11.6,7H9.3C8.4,7,7.6,7.8,7.6,8.6
			v6.3c0,0.9,0.7,1.6,1.6,1.6h2.4c0.3,0,0.5-0.1,0.8-0.2c0.2,0.4,0.4,0.8,0.8,1.1c0,0,0,0,0.1,0.1c1.2,0.9,2.6,4.3,3.2,5.7
			c-0.1,0.4-0.1,1.3,0.3,1.8c0.2,0.2,0.5,0.3,0.7,0.3c0.3,0,1.3-0.1,2-1c0.6-0.8,0.6-2.1,0.1-3.8c-0.5-1.4-0.5-2-0.5-2.2
			c0.2,0,0.4,0.1,0.6,0.1h0c0,0,0.9,0.2,1.9,0.2c1.4,0.1,2.5-0.2,3.1-0.7c0.8-0.8,0.7-1.8,0.5-2.4c0.2-0.3,0.5-0.7,0.5-1.3
			C25.7,13.8,25.5,13.3,25.1,12.8L25.1,12.8z M9.3,8.1h2.4c0.3,0,0.6,0.3,0.6,0.6v6.3c0,0.3-0.3,0.6-0.6,0.6H9.3
			c-0.3,0-0.6-0.3-0.6-0.6V8.6C8.7,8.3,8.9,8.1,9.3,8.1L9.3,8.1z M24.1,13.3c0.3,0.3,0.5,0.7,0.5,1c0,0.5-0.4,0.9-0.4,0.9
			c-0.2,0.2-0.2,0.5-0.1,0.7c0.1,0.1,0.5,0.8-0.1,1.4c-0.7,0.7-2.9,0.5-4.1,0.3c0,0,0,0-0.1,0c-0.2,0-0.4-0.1-0.7-0.1
			c-0.2-0.1-0.6-0.1-0.8,0.2c-0.5,0.5-0.5,1.5,0.2,3.5c0.4,1.3,0.4,2.3,0,2.8c-0.3,0.5-0.9,0.5-1.1,0.5c-0.1-0.2-0.1-0.7-0.1-1.1
			c0-0.1,0-0.2,0-0.3c-0.1-0.2-1.8-4.9-3.5-6.2c-0.5-0.5-0.7-1.1-0.7-1.3c0-0.2,0.1-0.3,0.1-0.5V8.6c0-0.1,0-0.2,0-0.3l0.4,0h0
			c0,0,2.5-0.3,5-0.3h0.1c1.2-0.1,2.1-0.1,2.8,0.1c0.9,0.2,1.5,0.5,1.7,1c0.3,0.5,0.1,1,0.1,1c-0.1,0.2,0,0.5,0.2,0.6
			c0.5,0.4,0.8,0.8,0.7,1.3c0,0.4-0.2,0.6-0.2,0.6C23.9,12.8,23.9,13.1,24.1,13.3L24.1,13.3z M24.1,13.3"/>
	</g>
</g>
</svg>
