<svg id="Layer_1" data-name="Layer 1" xmlns="http://www.w3.org/2000/svg" width="38" height="39" viewBox="0 0 28.5 29.86"><defs><style>.cls-1{fill:#0c0c0c;}</style></defs><title>icons baby bazaar</title><path class="cls-1" d="M28.26,5.64s-4.24-3-6.08-4.13A11.22,11.22,0,0,0,17.82,0h-.07l-.09,0-.07,0a.37.37,0,0,0-.14.07l0,0a.57.57,0,0,0-.11.11l0,.06a.56.56,0,0,0,0,.12.14.14,0,0,0,0,.06v0s0,0,0,0,0,.15,0,.38H11.29c0-.23,0-.37,0-.37a.53.53,0,0,0-.17-.43A.58.58,0,0,0,10.68,0,11.22,11.22,0,0,0,6.32,1.51C4.48,2.68.28,5.61.24,5.64a.56.56,0,0,0-.15.76l3.27,4.83a.55.55,0,0,0,.46.24.47.47,0,0,0,.16,0l3.26-1a6.56,6.56,0,0,1,.2,2.12,15.84,15.84,0,0,1-.88,2.67c-1,2.6-2.34,6.17-2.34,9.3A4.45,4.45,0,0,0,5.5,27.9c1.8,1.79,5.12,2,7.7,2h2.1c2.58,0,5.9-.18,7.7-2a4.49,4.49,0,0,0,1.28-3.34c0-3.13-1.35-6.7-2.34-9.31a14.66,14.66,0,0,1-.88-2.66,6.29,6.29,0,0,1,.2-2.12l3.26,1a.47.47,0,0,0,.16,0,.55.55,0,0,0,.46-.24L28.4,6.4A.55.55,0,0,0,28.26,5.64ZM17.05,2.05a4,4,0,0,1-1,2,2.47,2.47,0,0,1-1.88.74,2.48,2.48,0,0,1-1.87-.73,4.12,4.12,0,0,1-.92-2Zm7.4,8.23-2.91-.87a8.53,8.53,0,0,0,.23-1.1,4.37,4.37,0,0,0-.93-3.09.55.55,0,0,0-.77-.07.54.54,0,0,0-.08.77,3.35,3.35,0,0,1,.69,2.25,10.93,10.93,0,0,1-.32,1.4,8.49,8.49,0,0,0-.4,3.1,15,15,0,0,0,.95,3c1,2.53,2.27,6,2.27,8.93a3.42,3.42,0,0,1-.95,2.55c-1.57,1.55-4.82,1.65-7.24,1.64H13.51c-2.42,0-5.67-.09-7.24-1.64a3.39,3.39,0,0,1-.95-2.55c0-2.94,1.31-6.4,2.27-8.93a15,15,0,0,0,.95-3,8.49,8.49,0,0,0-.4-3.1,10.93,10.93,0,0,1-.32-1.4,3.35,3.35,0,0,1,.69-2.25.55.55,0,0,0-.85-.7,4.37,4.37,0,0,0-.93,3.09A8.53,8.53,0,0,0,7,9.41l-2.91.87-2.74-4c1.13-.78,4.14-2.86,5.6-3.8A9.87,9.87,0,0,1,10.2,1.19a5.92,5.92,0,0,0,1.35,3.62,3.53,3.53,0,0,0,2.66,1.07,3.58,3.58,0,0,0,2.67-1.07,5.58,5.58,0,0,0,1.34-3,.5.5,0,0,0,.09-.29.57.57,0,0,0,0-.18s0-.09,0-.13a9.92,9.92,0,0,1,3.3,1.24c1.46.94,4.47,3,5.6,3.8Z"/><path class="cls-1" d="M16.2,15.9a2.86,2.86,0,0,0-1.87.75,2.81,2.81,0,0,0-1.86-.75,2.59,2.59,0,0,0-2.65,2.7c0,1.85,2.1,4.37,4.33,5.17a.57.57,0,0,0,.18,0,.58.58,0,0,0,.19,0c2.23-.8,4.33-3.32,4.33-5.17A2.59,2.59,0,0,0,16.2,15.9Zm-1.87,6.76c-1.69-.71-3.41-2.73-3.41-4.06A1.49,1.49,0,0,1,12.47,17a2,2,0,0,1,1.42.76.53.53,0,0,0,.44.23.65.65,0,0,0,.45-.22A2,2,0,0,1,16.2,17a1.49,1.49,0,0,1,1.55,1.6C17.75,19.93,16,22,14.33,22.66Z"/></svg>