<svg id="Layer_1" data-name="Layer 1" xmlns="http://www.w3.org/2000/svg" width="40" height="40" viewBox="0 0 28.86 29.21"><defs><style>.cls-1{fill:#0c0c0c;}</style></defs><title>icons baby bazaar</title><path class="cls-1" d="M3.28,10.21a2,2,0,1,0,2.77,0,2,2,0,0,0-2.77,0Zm2.07,2.08a1,1,0,0,1-1.38,0,1,1,0,0,1-.29-.7A1,1,0,0,1,4,10.9a1,1,0,0,1,1.67.69,1,1,0,0,1-.29.7Zm0,0"/><path class="cls-1" d="M10.21,3.28a2,2,0,1,0,2.77,0,1.95,1.95,0,0,0-2.77,0Zm2.08,2.07a1,1,0,1,1-.7-1.67,1,1,0,0,1,.7.29,1,1,0,0,1,0,1.38Zm0,0"/><path class="cls-1" d="M9.51,7.55a2,2,0,1,0,1.39.58,1.95,1.95,0,0,0-1.39-.58Zm.7,2.66A1,1,0,1,1,8.82,8.82a1,1,0,0,1,.69-.29,1,1,0,0,1,1,1,1,1,0,0,1-.28.7Zm0,0"/><path class="cls-1" d="M27.36,20.43a5.12,5.12,0,0,0-5.86-1l-4.34-4.34a1.57,1.57,0,0,0-.46-1.16l-.42-.42a8.69,8.69,0,0,0,1-7h0l-.05-.18c0-.12-.08-.25-.13-.38s-.07-.21-.11-.32l-.15-.37-.18-.37c-.07-.15-.15-.3-.24-.46l-.2-.34c-.06-.08-.11-.17-.17-.26l-.4-.54a2.09,2.09,0,0,1-.14-.17c-.16-.19-.33-.38-.51-.56s-.37-.34-.56-.51l-.17-.13c-.18-.14-.35-.28-.54-.41l-.26-.17-.34-.2L12.73.92,12.36.74,12,.59,11.67.48,11.29.35l-.18,0h0A9.14,9.14,0,0,0,8.82,0,8.81,8.81,0,0,0,0,8.82,8.71,8.71,0,0,0,.31,11.1h0l0,.18c0,.12.08.25.13.37s.07.22.11.33l.15.37c.06.13.12.26.19.39s.15.29.23.43.13.23.21.35l.16.26c.13.18.26.36.41.54l.13.17c.17.19.33.38.51.56s.37.34.56.5l.17.14c.18.14.36.28.54.4l.27.17c.11.08.22.14.33.21l.46.24.37.18.37.15.32.11.38.13.18.05h0a8.71,8.71,0,0,0,6.54-.79l.5.51a1.59,1.59,0,0,0,1.13.46h0l4.34,4.34a5.14,5.14,0,1,0,8.28-1.42ZM6.18,16.2c-.22-.08-.45-.17-.66-.27l-.14-.07c-.21-.1-.42-.22-.62-.34l-.14-.09a5.81,5.81,0,0,1-.57-.4l-.14-.1q-.33-.27-.63-.57a6.75,6.75,0,0,1-.57-.63l-.1-.14a5.81,5.81,0,0,1-.4-.57l-.09-.14c-.12-.2-.23-.4-.34-.62l-.06-.14a6.54,6.54,0,0,1-.28-.66l0-.08,10-10,.08,0a4.84,4.84,0,0,1,.66.28l.14.06c.22.11.42.22.62.34l.14.09a5.81,5.81,0,0,1,.57.4l.14.1a6.75,6.75,0,0,1,.63.57,6.75,6.75,0,0,1,.57.63A1.47,1.47,0,0,0,15,4c.14.19.28.38.4.58l.09.14c.12.2.24.41.34.62l.07.14c.1.21.18.43.27.66l0,.08-10,10-.08,0ZM1,8.82a7.83,7.83,0,0,1,9.3-7.7L1.12,10.29A8,8,0,0,1,1,8.82Zm6.38,7.7,9.16-9.17a8,8,0,0,1,.14,1.47,7.83,7.83,0,0,1-9.3,7.7ZM14,16.1l1.73-1.73.26.25a.62.62,0,0,1,0,.87l-.87.87a.62.62,0,0,1-.86,0Zm1.82.95.86-.87.09-.08,3.81,3.81-1,1-3.81-3.81ZM26.66,27a4.17,4.17,0,1,1,0-5.89,4.16,4.16,0,0,1,0,5.89Zm0,0"/><path class="cls-1" d="M26,21.81a3.19,3.19,0,1,0,0,4.51,3.2,3.2,0,0,0,0-4.51Zm-.69,3.82a2.22,2.22,0,0,1-3.12,0,2.21,2.21,0,1,1,3.12-3.12,2.21,2.21,0,0,1,0,3.12Zm0,0"/></svg>