<svg id="Layer_1" data-name="Layer 1" xmlns="http://www.w3.org/2000/svg" width="28" height="39" viewBox="0 0 21.31 29.52"><defs><style>.cls-1{fill:#0c0c0c;}</style></defs><title>icons baby bazaar</title><path class="cls-1" d="M20.76,3h-3V.55a.48.48,0,0,0-.06-.24l0-.06a.49.49,0,0,0-.12-.13s0,0,0,0l0,0a.48.48,0,0,0-.17,0l-.07,0H4.32L4.25,0a.48.48,0,0,0-.17.05l0,0s0,0,0,0a.74.74,0,0,0-.12.13l0,.06a.48.48,0,0,0-.06.24V3H.55A.55.55,0,0,0,0,3.58V29a.55.55,0,0,0,.55.55H20.76a.55.55,0,0,0,.55-.55V3.58A.55.55,0,0,0,20.76,3Zm-.55,8.91H15.37V10.76h4.84ZM10.78,3,6.8,1.1h8ZM4.89,1.42,10,3.82,8.33,6.64,4.89,4.24Zm11.78,0V3.17a.57.57,0,0,0-.19.41.55.55,0,0,0,.19.41v.25l-3.44,2.4L11.56,3.82ZM1.1,10.76H5.94v1.18H1.1ZM1.1,13H6.49A.55.55,0,0,0,7,12.49V10.21a.55.55,0,0,0-.55-.55H1.1V4.13H3.79v.4A.56.56,0,0,0,4,5L8.19,7.89A.62.62,0,0,0,8.51,8h.11A.53.53,0,0,0,9,7.71L10.23,5.6V28.42H1.1ZM11.33,28.42V5.6l1.25,2.11a.53.53,0,0,0,.36.26h.11a.57.57,0,0,0,.32-.09L17.54,5a.53.53,0,0,0,.23-.45v-.4h2.44V9.66H14.82a.55.55,0,0,0-.55.55v2.28a.55.55,0,0,0,.55.55h5.39V28.42Z"/></svg>