<svg id="Layer_1" data-name="Layer 1" xmlns="http://www.w3.org/2000/svg" width="40" height="40" viewBox="0 0 28.91 29.43"><defs><style>.cls-1{fill:#0c0c0c;}</style></defs><title>icons baby bazaar</title><path class="cls-1" d="M24.71,20.15A9,9,0,0,0,21.93,15l2.36-2.77.48.14h.06a2.1,2.1,0,0,0,.36,0,2.18,2.18,0,0,0,2.17-2.18V9a2.18,2.18,0,0,0-2.53-2.15L19.58,8.27a1.37,1.37,0,0,0,0,2.64l1.17.32L19.46,13A21.37,21.37,0,0,0,9.8,9.87c.44-3.51,1.12-5.09,1.72-5.78a2,2,0,0,0,.35,0H17a2.08,2.08,0,0,0,2-1.48,1.54,1.54,0,0,1,1.12,1.48.52.52,0,0,0,.52.52.53.53,0,0,0,.52-.52A2.57,2.57,0,0,0,19,1.6v0c1.76.13,3.17,1,3.17,2a.52.52,0,1,0,1,0c0-1.73-2-3.09-4.65-3.09l-.15,0A2.06,2.06,0,0,0,17,0H11.87A2.09,2.09,0,0,0,10,1.31C7.82,2.9,6.69,6.87,6.34,14.07a7.76,7.76,0,0,0-4,2.12h0l0,0a7.73,7.73,0,0,0,0,10.91v0h0a7.71,7.71,0,0,0,10.91,0h0v0a7.71,7.71,0,0,0,0-10.91s0,0,0,0h0a7.73,7.73,0,0,0-3.77-2.06c0-.41.05-.8.07-1.18,5.73.4,11.94,3.78,12.17,8a4.64,4.64,0,1,0,3-.78ZM19.86,9.91a.33.33,0,0,1,0-.64L25,7.84a1.1,1.1,0,0,1,.9.26,1.13,1.13,0,0,1,.41.87v1.24a1.15,1.15,0,0,1-.41.88,1.18,1.18,0,0,1-.9.26Zm1.95,1.61,1.38.39-2,2.37L20.85,14l-.27-.21-.26-.2ZM10.86,1.92a.8.8,0,0,1,0-.15l0-.11A1,1,0,0,1,11.87,1H17A1,1,0,1,1,17,3.1H11.87a1.26,1.26,0,0,1-.27,0l-.07,0a1,1,0,0,1-.63-.64s0,0,0,0a.93.93,0,0,1-.05-.29A.68.68,0,0,1,10.86,1.92ZM12.1,16.59,10.3,18.4a.52.52,0,0,0,0,.73.51.51,0,0,0,.36.15.51.51,0,0,0,.37-.15l1.81-1.81a6.71,6.71,0,0,1,0,8.72L11,24.24a.5.5,0,0,0-.73,0,.52.52,0,0,0,0,.73l1.8,1.8a6.68,6.68,0,0,1-8.72,0L5.19,25a.52.52,0,0,0,0-.73.5.5,0,0,0-.73,0L2.65,26a6.68,6.68,0,0,1,0-8.72l1.81,1.81a.51.51,0,0,0,.36.15.51.51,0,0,0,.37-.15.52.52,0,0,0,0-.73L3.38,16.59A6.71,6.71,0,0,1,6.88,15h0l.36,0,.41,0h.11c.2,0,.38,0,.57,0l.47.06.3,0A6.74,6.74,0,0,1,12.1,16.59ZM8.4,14l-.66,0H7.38c.3-5.86,1.12-9.48,2.55-11.2a.14.14,0,0,0,0,.06l.06.13.09.17a2.07,2.07,0,0,0,.17.24l.09.11c.05.06.11.1.16.15s0,0,0,0C9.4,5.23,8.69,8.63,8.4,14Zm1.25-2.05c0-.35.07-.69.1-1a18.87,18.87,0,0,1,9.61,3.27h0l.13.11c.29.21.58.43.85.66a9.07,9.07,0,0,1,3.31,5.22l-.1,0-.36.07-.13,0-.34.1-.08,0C22,15.81,15.62,12.36,9.65,11.92ZM24.26,28.39a3.61,3.61,0,0,1-1.74-6.78l.38-.18.08,0,.33-.1.09,0c.11,0,.22-.05.33-.06l.09,0,.43,0h0a3.61,3.61,0,1,1,0,7.22Z"/><path class="cls-1" d="M24.26,22.71a2.07,2.07,0,1,0,2.07,2.07A2.07,2.07,0,0,0,24.26,22.71Zm0,3.1a1,1,0,1,1,1-1A1,1,0,0,1,24.26,25.81Z"/><path class="cls-1" d="M5.92,19.85a2.58,2.58,0,0,0,3.65,3.66,2.63,2.63,0,0,0,.7-1.31h1.6v-1h-1.6a2.57,2.57,0,0,0-4.35-1.32ZM9.2,21.17H7.74v1H9.2a1.61,1.61,0,0,1-.36.58,1.56,1.56,0,0,1-2.19,0,1.54,1.54,0,0,1,0-2.19,1.53,1.53,0,0,1,2.19,0A1.46,1.46,0,0,1,9.2,21.17Z"/></svg>