<?xml version="1.0" encoding="utf-8"?>
<!-- Generator: Adobe Illustrator 23.0.5, SVG Export Plug-In . SVG Version: 6.00 Build 0)  -->
<svg version="1.1" id="Layer_1" xmlns="http://www.w3.org/2000/svg" xmlns:xlink="http://www.w3.org/1999/xlink" x="0px" y="0px"
	 viewBox="0 0 59 67" width="59" height="67" style="enable-background:new 0 0 59 67;" xml:space="preserve">
<style type="text/css">
	.st0{fill:none;stroke:#9FA4A9;stroke-width:2.5;stroke-linecap:round;stroke-linejoin:round;stroke-miterlimit:10;}
</style>
<g>
	<path class="st0" d="M38.3,41.3c0-10.7,9.7-19.5,9.7-19.5s9.7,8.8,9.7,19.5c0,5-4.3,9-9.7,9S38.3,46.2,38.3,41.3z"/>
	<path class="st0" d="M25.2,59.5c0-7.3,6.7-13.4,6.7-13.4s6.7,6.1,6.7,13.4c0,3.4-3,6.2-6.7,6.2S25.2,62.9,25.2,59.5z"/>
	<g>
		<path class="st0" d="M1.3,32.5c0-17,15.4-31,15.4-31s15.4,14,15.4,31c0,7.9-6.9,14.2-15.4,14.2S1.3,40.3,1.3,32.5z"/>
		<path class="st0" d="M8.8,27.3c0,0-3.8,10.3,7.2,13.1"/>
	</g>
</g>
</svg>
